# xmcd CD database file
#
# Track frame offsets:
#	150
#	13889
#	27478
#	39156
#	58483
#	71301
#	86175
#	99506
#	112976
#	126547
#	140385
#	157187
#	169618
#	182505
#	195941
#	210123
#	222686
#	233398
#
# Disc length: 3282 seconds
#
# Revision: 1
# Processed by: cddbd v1.5.2PL0 Copyright (c) Steve Scherf et al.
# Submitted via: CDex 1.51
#
DISCID=f80cd012
DTITLE=Django Reinhardt - the discovery of jazz cd 1
DYEAR=2004
DGENRE=Jazz
TTITLE0=Coquette
TTITLE1=Crépuscule
TTITLE2=Djangology
TTITLE3=Artillerie Lourde
TTITLE4=Clair De Lune
TTITLE5=Duke And Dukie
TTITLE6=Are You In The Mood
TTITLE7=Danse Norvégienne
TTITLE8=De Nulle Part
TTITLE9=Bei Dir War Es Immer So Schön
TTITLE10=Féerie
TTITLE11=Babik
TTITLE12=If Dreams Come True
TTITLE13=Belleville
TTITLE14=Embraceable You
TTITLE15=Echoes Of France
TTITLE16=I Can't Give You Anything But Love
TTITLE17=I Won't Dance
EXTD=YEAR: 2004
EXTT0=
EXTT1=
EXTT2=
EXTT3=
EXTT4=
EXTT5=
EXTT6=
EXTT7=
EXTT8=
EXTT9=
EXTT10=
EXTT11=
EXTT12=
EXTT13=
EXTT14=
EXTT15=
EXTT16=
EXTT17=
PLAYORDER=
